<svg width="26" height="26" viewBox="0 0 26 26" fill="none" xmlns="http://www.w3.org/2000/svg">
<path d="M5.25 18.4167H9.75C9.98214 18.4167 10.0982 18.4167 10.1962 18.4231C11.6985 18.5216 12.8951 19.7182 12.9936 21.2205C13 21.3185 13 21.4346 13 21.6667V10.3334C13 7.50495 13 6.09073 12.1213 5.21205C11.2426 4.33337 9.82843 4.33337 7 4.33337H5.25C4.30719 4.33337 3.83579 4.33337 3.54289 4.62627C3.25 4.91916 3.25 5.39056 3.25 6.33337V16.4167C3.25 17.3595 3.25 17.8309 3.54289 18.1238C3.83579 18.4167 4.30719 18.4167 5.25 18.4167Z" fill="white" stroke="#ED6119" stroke-width="1.2"/>
<path d="M20.75 18.4167H16.25C16.0179 18.4167 15.9018 18.4167 15.8038 18.4231C14.3015 18.5216 13.1049 19.7182 13.0064 21.2205C13 21.3185 13 21.4346 13 21.6667V10.3334C13 7.50495 13 6.09073 13.8787 5.21205C14.7574 4.33337 16.1716 4.33337 19 4.33337H20.75C21.6928 4.33337 22.1642 4.33337 22.4571 4.62627C22.75 4.91916 22.75 5.39056 22.75 6.33337V16.4167C22.75 17.3595 22.75 17.8309 22.4571 18.1238C22.1642 18.4167 21.6928 18.4167 20.75 18.4167Z" fill="white" stroke="#ED6119" stroke-width="1.2"/>
</svg>
