<svg width="19" height="19" viewBox="0 0 19 19" fill="none" xmlns="http://www.w3.org/2000/svg">
<path d="M7.59906 15.0874L7.59907 15.0874C7.84084 14.9505 8.03229 14.7579 8.18354 14.6058C8.19727 14.5919 8.21067 14.5785 8.22374 14.5654L13.7695 9.01961L13.7952 8.99397C13.9975 8.79168 14.1945 8.59473 14.3453 8.41328C14.5115 8.21322 14.6865 7.95801 14.7726 7.62333C14.8567 7.29643 14.8567 6.95357 14.7726 6.62667C14.6865 6.29199 14.5115 6.03678 14.3453 5.83672C14.1945 5.65527 13.9975 5.45832 13.7952 5.25603L13.7695 5.23039L13.7439 5.20475C13.5416 5.00241 13.3447 4.80541 13.1632 4.65463C12.9631 4.48839 12.7079 4.3134 12.3732 4.22729C12.0463 4.14319 11.7035 4.14319 11.3766 4.22729C11.0419 4.3134 10.7867 4.48839 10.5866 4.65463C10.4052 4.80541 10.2082 5.00241 10.0059 5.20476C9.99741 5.2133 9.98886 5.22184 9.98031 5.23039L4.43453 10.7762C4.42145 10.7893 4.40797 10.8027 4.39416 10.8164C4.24199 10.9676 4.04937 11.1591 3.91248 11.4009C3.7756 11.6426 3.71053 11.9063 3.65913 12.1146C3.65446 12.1335 3.6499 12.152 3.64542 12.1699L3.19022 13.9907C3.18742 14.0019 3.1845 14.0135 3.18148 14.0255C3.14466 14.172 3.09366 14.3749 3.07609 14.5545C3.05587 14.7612 3.04918 15.2132 3.41796 15.582C3.78674 15.9507 4.2387 15.9441 4.44539 15.9238C4.62501 15.9063 4.82792 15.8553 4.97441 15.8184C4.98641 15.8154 4.99804 15.8125 5.00924 15.8097L6.83003 15.3545C6.84796 15.35 6.86642 15.3455 6.88533 15.3408C7.09363 15.2894 7.3573 15.2243 7.59906 15.0874Z" stroke="#33363F" stroke-width="2"/>
<path d="M9.89575 5.93746L12.2708 4.35413L14.6458 6.72913L13.0624 9.10413L9.89575 5.93746Z" fill="#33363F"/>
</svg>
